<?xml version="1.0" standalone="no"?>
<!DOCTYPE svg PUBLIC "-//W3C//DTD SVG 20010904//EN"
 "http://www.w3.org/TR/2001/REC-SVG-20010904/DTD/svg10.dtd">
<svg version="1.0" xmlns="http://www.w3.org/2000/svg"
 width="500.000000pt" height="500.000000pt" viewBox="0 0 500.000000 500.000000"
 preserveAspectRatio="xMidYMid meet">

<g transform="translate(0.000000,500.000000) scale(0.100000,-0.100000)"
fill="#101820FF" stroke="none">
<path d="M1620 4383 c-104 -21 -216 -51 -265 -72 -91 -40 -258 -137 -302 -175
-19 -17 -177 -175 -189 -189 -41 -49 -136 -212 -175 -302 -44 -102 -89 -326
-89 -445 0 -119 45 -342 89 -445 20 -47 94 -190 100 -195 4 -3 23 -30 43 -60
44 -68 165 -191 247 -253 34 -26 64 -47 68 -47 3 0 14 -6 22 -14 26 -22 141
-80 206 -103 197 -69 362 -92 531 -73 58 7 108 10 110 7 3 -3 0 -51 -6 -107
-25 -207 26 -464 128 -660 19 -36 41 -72 48 -81 8 -8 14 -19 14 -23 0 -34 211
-256 300 -315 30 -20 57 -39 60 -43 3 -4 32 -19 65 -35 33 -16 67 -33 75 -38
18 -12 66 -30 135 -51 28 -9 60 -20 73 -25 13 -5 37 -9 54 -9 16 0 58 -7 91
-16 131 -34 398 0 582 73 106 42 290 150 308 180 4 7 12 13 16 13 11 0 161
150 161 161 0 4 6 12 13 16 20 12 90 120 132 205 58 115 63 128 96 253 38 146
49 329 24 430 -8 33 -14 73 -15 90 0 31 -33 148 -55 200 -73 167 -157 294
-266 403 -76 78 -178 162 -195 162 -4 0 -15 6 -23 14 -9 7 -45 29 -81 48 -198
103 -456 153 -663 128 -55 -6 -101 -9 -104 -6 -3 2 0 52 7 110 19 168 -3 328
-73 531 -11 33 -26 67 -34 76 -7 8 -13 20 -13 26 0 10 -39 81 -70 127 -8 13
-27 42 -43 64 -38 58 -191 207 -257 251 -30 20 -57 39 -60 42 -8 10 -104 59
-115 59 -6 0 -16 5 -23 12 -21 21 -204 80 -307 99 -103 18 -287 19 -375 2z
m418 -113 c70 -17 147 -40 172 -52 125 -58 150 -71 161 -84 6 -8 16 -14 22
-14 32 0 226 -179 292 -270 44 -59 49 -69 90 -150 15 -30 32 -63 37 -74 5 -10
16 -42 24 -70 8 -28 19 -60 24 -71 47 -109 43 -535 -5 -535 -6 0 -40 -11 -75
-25 -72 -28 -89 -22 -67 22 47 90 47 374 1 518 -45 138 -156 335 -189 335 -25
0 -29 -28 -9 -57 72 -102 139 -242 160 -338 24 -107 24 -313 0 -410 -26 -108
-49 -146 -107 -174 -27 -14 -49 -28 -49 -32 0 -4 -21 -21 -47 -38 -58 -37
-190 -170 -228 -228 -15 -24 -31 -43 -34 -43 -4 0 -18 -22 -31 -49 -16 -31
-37 -56 -61 -69 -100 -58 -375 -75 -539 -33 -71 18 -169 60 -265 114 -75 42
-217 185 -273 272 -28 45 -90 184 -105 235 -38 132 -45 247 -23 391 17 110 26
138 72 237 105 225 299 396 544 481 50 17 213 41 279 41 49 0 172 -18 252 -36
19 -4 28 -1 32 10 9 23 -31 45 -105 59 -82 14 -296 14 -373 -1 -99 -19 -275
-85 -275 -104 0 -4 -5 -8 -11 -8 -32 0 -202 -144 -274 -231 -31 -38 -75 -107
-75 -119 0 -5 -4 -10 -8 -10 -18 0 -92 -201 -108 -290 -4 -25 -8 -101 -8 -170
0 -69 4 -145 8 -170 14 -80 73 -240 108 -294 7 -11 27 -43 45 -72 45 -73 188
-210 275 -265 141 -88 289 -136 448 -146 117 -6 266 9 313 33 16 9 33 12 37 7
5 -4 -3 -42 -18 -84 l-26 -76 -90 -18 c-65 -12 -119 -16 -186 -12 -98 5 -220
23 -255 37 -11 5 -38 14 -60 20 -46 14 -98 35 -140 57 -102 52 -125 66 -125
74 0 5 -5 9 -11 9 -16 0 -102 73 -176 148 -68 69 -151 190 -201 292 -87 181
-121 465 -80 665 17 80 48 186 66 221 5 11 17 37 28 59 24 53 61 110 101 161
18 23 33 44 33 47 0 9 148 157 157 157 3 0 24 15 47 33 51 40 108 77 161 101
22 11 48 23 58 28 19 9 80 29 142 46 118 32 171 40 278 41 99 1 138 -4 245
-29z m1377 -1393 c345 -72 626 -294 783 -618 18 -37 44 -113 58 -170 14 -57
29 -118 35 -135 15 -50 11 -267 -7 -337 -47 -184 -58 -223 -71 -238 -7 -8 -13
-21 -13 -28 0 -16 -23 -59 -70 -130 -19 -29 -39 -61 -45 -70 -5 -9 -16 -20
-22 -24 -7 -4 -13 -12 -13 -17 0 -10 -148 -160 -157 -160 -3 0 -24 -15 -47
-33 -113 -90 -248 -153 -407 -188 -124 -27 -309 -36 -389 -19 -207 45 -330 90
-407 146 -17 13 -34 24 -38 24 -14 0 -120 86 -182 148 -124 122 -206 255 -263
422 -40 116 -54 208 -54 350 0 194 37 348 121 508 195 371 576 597 988 587 72
-2 162 -10 200 -18z"/>
<path d="M2157 4056 c-3 -8 0 -21 6 -29 17 -21 106 -60 123 -53 20 8 17 42 -3
50 -10 4 -34 15 -53 26 -42 23 -66 25 -73 6z"/>
<path d="M2354 3936 c-7 -18 24 -66 42 -66 8 0 14 -4 14 -10 0 -19 29 -10 35
11 13 41 -76 105 -91 65z"/>
<path d="M1792 3758 c-5 -7 -12 -22 -14 -33 -2 -14 -14 -22 -38 -26 -104 -19
-174 -78 -204 -173 -18 -58 -16 -139 5 -151 5 -4 9 -15 9 -25 0 -31 48 -77
118 -115 36 -19 72 -35 79 -35 7 0 17 -9 23 -19 14 -27 13 -344 -1 -358 -23
-23 -167 42 -183 83 -3 8 -18 14 -34 14 -39 0 -61 -45 -43 -88 22 -52 132
-109 241 -124 18 -2 26 -10 30 -32 7 -40 37 -57 56 -32 8 11 14 29 14 41 0 21
34 45 65 45 20 0 85 38 111 64 48 48 59 85 59 201 0 120 -6 138 -70 198 -27
25 -100 65 -147 81 -16 5 -18 22 -18 161 0 126 3 157 14 161 8 3 50 -6 92 -21
l78 -27 18 22 c50 61 -5 111 -141 128 -51 7 -55 9 -63 40 -9 34 -36 43 -56 20z
m-18 -164 c24 -9 24 -262 0 -271 -33 -12 -107 42 -130 96 -18 43 -18 61 1 98
19 37 38 54 79 69 17 7 32 12 33 13 1 0 8 -2 17 -5z m155 -491 c53 -50 55 -56
52 -159 -1 -29 -9 -49 -29 -72 -29 -32 -77 -56 -93 -46 -5 3 -9 77 -9 165 0
184 1 185 79 112z"/>
<path d="M3035 2735 c-402 -76 -710 -392 -774 -795 -47 -292 61 -609 280 -820
102 -100 206 -163 353 -217 126 -46 318 -64 441 -43 117 21 258 69 330 113
158 96 263 201 362 362 37 60 91 207 106 289 14 80 14 274 -1 356 -15 83 -66
223 -105 285 -46 75 -92 135 -102 135 -24 0 -24 -29 1 -65 13 -20 24 -40 24
-44 0 -5 6 -14 14 -20 12 -10 25 -35 77 -146 28 -61 59 -229 59 -325 0 -66
-21 -205 -40 -271 -47 -163 -205 -375 -350 -470 -125 -82 -219 -120 -360 -144
-107 -18 -192 -19 -300 0 -95 15 -131 26 -208 61 -29 13 -55 24 -59 24 -3 0
-20 10 -37 23 -17 12 -44 29 -61 37 -76 38 -285 283 -285 334 0 9 -4 16 -10
16 -5 0 -10 6 -10 13 0 6 -7 26 -16 42 -30 58 -64 226 -64 315 1 127 23 263
54 335 133 306 335 481 651 567 73 19 345 16 409 -5 49 -16 94 -9 81 14 -30
48 -300 74 -460 44z"/>
<path d="M3553 2654 c-5 -15 27 -54 45 -54 5 0 23 -7 41 -16 36 -18 61 -13 61
13 0 12 -19 28 -53 46 -59 31 -85 34 -94 11z"/>
<path d="M3754 2539 c-8 -14 16 -59 32 -59 6 0 14 -7 18 -15 8 -21 23 -19 36
4 19 37 -64 105 -86 70z"/>
<path d="M3146 2281 c-66 -23 -130 -80 -150 -133 -9 -24 -19 -79 -23 -123 l-8
-80 -35 -3 c-48 -4 -80 -22 -80 -44 0 -31 25 -48 69 -48 22 0 42 -3 44 -7 3
-5 7 -30 8 -58 l4 -50 -45 -3 c-106 -8 -106 -86 0 -94 l35 -3 11 -85 c11 -94
20 -114 71 -171 42 -46 133 -79 219 -79 66 0 173 41 213 81 64 64 94 186 52
209 -27 14 -66 13 -79 -2 -5 -7 -13 -32 -17 -56 -10 -64 -55 -107 -129 -122
-133 -27 -226 47 -226 180 l0 50 88 2 c48 0 92 2 97 3 6 2 18 3 27 4 25 2 33
39 12 62 -15 16 -31 19 -121 19 l-104 0 3 58 3 57 108 3 c104 3 108 4 119 27
9 21 8 29 -7 45 -16 18 -31 20 -122 20 l-103 0 0 62 c0 78 28 139 78 170 29
18 50 23 102 22 105 -2 150 -34 173 -124 12 -46 18 -55 43 -62 68 -18 96 51
54 136 -34 70 -61 95 -139 126 -86 35 -167 39 -245 11z"/>
<path d="M3630 4391 c0 -5 -8 -12 -17 -16 -10 -3 -29 -21 -43 -40 -14 -19 -28
-35 -31 -35 -15 0 -339 -335 -339 -350 0 -16 196 -220 212 -220 4 0 8 -4 8 -9
0 -11 191 -200 215 -213 22 -13 55 13 55 43 0 20 -33 59 -147 172 -80 81 -150
147 -155 147 -4 0 -8 7 -8 15 0 13 46 15 355 15 398 0 396 0 440 -70 l25 -39
2 -358 3 -357 25 -13 c20 -10 29 -10 45 1 19 13 20 25 23 368 l2 355 -25 54
c-27 61 -47 85 -90 115 -56 39 -108 44 -465 44 -207 0 -340 4 -338 9 3 11 148
161 154 161 2 0 38 35 79 77 80 83 95 121 56 143 -24 13 -41 13 -41 1z"/>
<path d="M712 1928 c-9 -9 -12 -104 -12 -364 0 -351 0 -352 24 -407 30 -68 97
-127 164 -144 33 -9 151 -13 390 -13 188 0 342 -3 342 -8 0 -4 -31 -38 -70
-76 -38 -38 -70 -73 -70 -78 0 -4 -4 -8 -10 -8 -5 0 -43 -35 -85 -77 -57 -59
-75 -85 -75 -106 0 -35 39 -57 65 -36 31 27 75 74 75 82 0 4 4 7 9 7 11 0 171
161 171 172 0 4 4 8 9 8 15 0 161 153 161 169 0 15 -238 263 -388 404 -49 47
-54 49 -77 37 -52 -28 -37 -55 121 -212 80 -81 152 -149 160 -152 9 -3 12 -10
9 -16 -4 -6 -132 -10 -356 -10 -391 0 -399 1 -443 66 l-26 39 0 355 c0 264 -3
359 -12 368 -7 7 -24 12 -38 12 -14 0 -31 -5 -38 -12z"/>
</g>
</svg>
